<svg width="56" height="56" viewBox="0 0 56 56" fill="none" xmlns="http://www.w3.org/2000/svg">
<rect width="56" height="56" rx="8" fill="#F3F7FC"/>
<path d="M37.4286 25.6429H30.3571V18.5714C30.3571 17.7037 29.6534 17 28.7857 17H27.2143C26.3466 17 25.6429 17.7037 25.6429 18.5714V25.6429H18.5714C17.7037 25.6429 17 26.3466 17 27.2143V28.7857C17 29.6534 17.7037 30.3571 18.5714 30.3571H25.6429V37.4286C25.6429 38.2963 26.3466 39 27.2143 39H28.7857C29.6534 39 30.3571 38.2963 30.3571 37.4286V30.3571H37.4286C38.2963 30.3571 39 29.6534 39 28.7857V27.2143C39 26.3466 38.2963 25.6429 37.4286 25.6429Z" fill="#667085"/>
</svg>
