<svg width="56" height="56" viewBox="0 0 56 56" fill="none" xmlns="http://www.w3.org/2000/svg">
<rect width="56" height="56" rx="8" fill="#F3F7FC"/>
<path d="M39 27.9792C39.0113 34.0399 34.0687 38.9957 28.008 39C25.3904 39.0019 22.986 38.0894 21.0965 36.5644C20.6052 36.1679 20.5685 35.4316 21.015 34.9851L21.5147 34.4853C21.8966 34.1035 22.5062 34.0617 22.9292 34.3973C24.3213 35.502 26.083 36.1613 28 36.1613C32.5111 36.1613 36.1613 32.5104 36.1613 28C36.1613 23.4889 32.5104 19.8387 28 19.8387C25.8349 19.8387 23.8684 20.6801 22.4083 22.0534L23.5 23C23.9471 23.4471 23.6304 24.2115 22.9982 24.2115L17.7097 25.5161C17.3177 25.5161 17 25.1984 17 24.8065L18.2885 19.5018C18.2885 18.8696 19.0529 18.5529 19.5 19L20.4014 20.0465C22.3762 18.1593 25.0527 17 28 17C34.0682 17 38.9888 21.9136 39 27.9792Z" fill="#667085"/>
<path d="M23.8895 25.3054L23.8357 25.221C23.5048 25.432 23.2635 25.7137 23.1146 26.065L23.1146 26.065L23.1143 26.0657C22.971 26.4111 22.9 26.7891 22.9 27.1987C22.9 27.8171 23.0771 28.3309 23.4378 28.7314L23.4378 28.7314L23.4384 28.732C23.8073 29.1346 24.3471 29.3282 25.0395 29.3282C25.2415 29.3282 25.4177 29.3138 25.5668 29.284L25.5668 29.284L25.5685 29.2836C25.623 29.2717 25.677 29.2569 25.7302 29.2391L24.2606 31.8476L24.1766 31.9966H24.3477H25.2462H25.3052L25.3338 31.9449L26.4523 29.9155C26.6508 29.557 26.8196 29.2292 26.9585 28.9323C27.0986 28.633 27.2056 28.3406 27.2792 28.0552C27.3533 27.7677 27.3902 27.4665 27.3902 27.1517C27.3902 26.7485 27.3208 26.3767 27.1805 26.0376C27.0374 25.6919 26.8001 25.416 26.4719 25.2113C26.1389 25.0005 25.6973 24.9 25.1563 24.9C24.6174 24.9 24.1743 25.0039 23.8355 25.2212L23.8895 25.3054ZM23.8895 25.3054C24.2069 25.1018 24.6292 25 25.1563 25C25.6864 25 26.1072 25.0987 26.4187 25.296L25.8066 29.1035C25.7218 29.1392 25.6353 29.1667 25.5472 29.1859C25.4064 29.2141 25.2372 29.2282 25.0395 29.2282C24.3657 29.2282 23.8565 29.0403 23.5121 28.6644C23.1707 28.2855 23 27.7969 23 27.1987C23 26.8009 23.0689 26.436 23.2066 26.104C23.3474 25.772 23.575 25.5058 23.8895 25.3054ZM32.0683 27.3003C32.05 26.9935 32.0026 26.7004 31.9259 26.4211C31.851 26.1342 31.729 25.8768 31.5594 25.6501C31.3891 25.4151 31.1545 25.2327 30.8596 25.1014C30.561 24.9653 30.1878 24.9 29.7448 24.9C29.3019 24.9 28.9287 24.9653 28.6301 25.1014C28.335 25.2328 28.099 25.4152 27.9258 25.65L27.9257 25.6502C27.7592 25.8769 27.6373 26.1341 27.5594 26.4208L27.5592 26.4215C27.4856 26.7004 27.4382 26.9932 27.4169 27.2998L27.4168 27.3007C27.3987 27.6002 27.3897 27.895 27.3897 28.1852V28.9087C27.3897 29.1927 27.3987 29.4814 27.4168 29.7746L27.4168 29.7746L27.4169 29.7756C27.4383 30.0733 27.4873 30.3587 27.5641 30.6318C27.6422 30.9094 27.7644 31.1588 27.931 31.3791L27.931 31.3791L27.9316 31.3798C28.105 31.6048 28.3394 31.7805 28.631 31.9084L28.6314 31.9085C28.9295 32.0379 29.3022 32.1 29.7448 32.1C30.1874 32.1 30.5586 32.0379 30.854 31.9084C31.1484 31.7807 31.3832 31.605 31.5539 31.3795C31.7236 31.1592 31.8474 30.9096 31.9256 30.6318C32.0024 30.3585 32.0499 30.0729 32.0683 29.7751C32.0894 29.4817 32.1 29.1929 32.1 28.9087V28.1852C32.1 27.8949 32.0894 27.5999 32.0683 27.3003ZM32.0683 27.3003C32.0683 27.3001 32.0683 27.2999 32.0683 27.2997L31.9686 27.3067L32.0684 27.3007C32.0684 27.3006 32.0684 27.3004 32.0683 27.3003ZM30.8994 30.5671C30.9832 30.3573 31.0356 30.1177 31.0566 29.8483M30.8994 30.5671L30.8067 30.5295C30.8067 30.5296 30.8066 30.5297 30.8066 30.5297M30.8994 30.5671C30.8155 30.7738 30.6822 30.9383 30.4996 31.0604M30.8994 30.5671L30.8065 30.53C30.8065 30.5299 30.8066 30.5298 30.8066 30.5297M31.0566 29.8483L28.6833 26.4977C28.6833 26.4978 28.6833 26.4979 28.6832 26.498M31.0566 29.8483C31.0806 29.5758 31.0925 29.2893 31.0925 28.9886M31.0566 29.8483L31.0925 28.9886M30.8066 30.5297C30.886 30.331 30.9366 30.1016 30.9569 29.8406L30.957 29.8396C30.9807 29.5703 30.9925 29.2866 30.9925 28.9886V28.0631C30.9925 27.7651 30.9807 27.4798 30.957 27.2073L30.9569 27.2062L30.9569 27.2062C30.9365 26.9356 30.8845 26.7003 30.8023 26.4988L30.8016 26.4973L30.8017 26.4972C30.7247 26.299 30.6038 26.1448 30.4385 26.0315L30.4379 26.031C30.2811 25.9217 30.0538 25.8611 29.7448 25.8611C29.4392 25.8611 29.2114 25.9216 29.0512 26.0315C28.8857 26.1449 28.7631 26.2994 28.6832 26.498M30.8066 30.5297C30.7302 30.7179 30.6099 30.8662 30.4445 30.9769M28.6832 26.498C28.6037 26.7001 28.5516 26.9359 28.5282 27.2068C28.5075 27.4795 28.4971 27.7649 28.4971 28.0631V28.9886C28.4971 29.2867 28.5075 29.5705 28.5282 29.8401C28.5515 30.1012 28.6036 30.3307 28.6831 30.5297C28.7594 30.7179 28.8797 30.8662 29.0452 30.9769C29.2057 31.0813 29.4355 31.1389 29.7448 31.1389C30.0542 31.1389 30.284 31.0813 30.4445 30.9769M28.6832 26.498L30.4996 31.0604M30.4996 31.0604L30.444 30.9773C30.4441 30.9772 30.4443 30.977 30.4445 30.9769M30.4996 31.0604L30.445 30.9766C30.4448 30.9767 30.4446 30.9768 30.4445 30.9769M31.0925 28.9886V28.0631M31.0925 28.9886V28.0631M31.0925 28.0631C31.0925 27.7624 31.0806 27.4743 31.0566 27.1987L31.0925 28.0631ZM26.2435 26.4803L26.2435 26.4803L26.244 26.4815C26.3145 26.6731 26.3501 26.8806 26.3501 27.1047C26.3501 27.3193 26.316 27.5259 26.2478 27.7251C26.1832 27.9107 26.0666 28.063 25.8943 28.1831C25.7292 28.2982 25.4816 28.3624 25.1384 28.3624C24.7922 28.3624 24.5432 28.2982 24.3782 28.1833C24.2095 28.0637 24.0959 27.912 24.034 27.7269C23.9715 27.5273 23.9401 27.32 23.9401 27.1047C23.9401 26.8795 23.9716 26.6709 24.0338 26.4784C24.0956 26.2963 24.2076 26.1495 24.3728 26.0362L24.3728 26.0362L24.3738 26.0355C24.5324 25.924 24.7765 25.8611 25.1204 25.8611C25.467 25.8611 25.7183 25.9239 25.8868 26.0368L25.8868 26.0368L25.8878 26.0374C26.0623 26.1514 26.1794 26.2987 26.2435 26.4803Z" fill="#667085" stroke="#667085" stroke-width="0.2"/>
</svg>
