<svg width="56" height="56" viewBox="0 0 56 56" fill="none" xmlns="http://www.w3.org/2000/svg">
<rect width="56" height="56" rx="8" fill="#F3F7FC"/>
<path d="M38.4765 17H36.4084C36.3375 16.9999 36.2674 17.0142 36.2022 17.0421C36.137 17.0699 36.0781 17.1107 36.0292 17.162C35.9802 17.2133 35.9422 17.274 35.9174 17.3404C35.8926 17.4068 35.8816 17.4775 35.8849 17.5483L36.0594 21.1585C35.0449 19.963 33.7821 19.0029 32.3589 18.3451C30.9357 17.6872 29.3862 17.3473 27.8183 17.349C21.8569 17.349 16.9956 22.2142 17 28.1756C17.0044 34.1466 21.8464 38.9856 27.8183 38.9856C30.4972 38.9894 33.0815 37.9955 35.0675 36.1977C35.1205 36.1502 35.1633 36.0924 35.1933 36.0278C35.2232 35.9632 35.2397 35.8932 35.2416 35.822C35.2436 35.7509 35.231 35.6801 35.2047 35.6139C35.1783 35.5478 35.1388 35.4877 35.0884 35.4374L33.6052 33.9542C33.5114 33.8604 33.3854 33.8057 33.2527 33.8012C33.1201 33.7968 32.9907 33.8429 32.8907 33.9302C31.7188 34.9613 30.2604 35.6107 28.71 35.7917C27.1596 35.9728 25.5908 35.677 24.2129 34.9438C22.8349 34.2105 21.7131 33.0747 20.9971 31.6876C20.2811 30.3006 20.005 28.7282 20.2054 27.1802C20.4058 25.6322 21.0734 24.1821 22.119 23.0231C23.1646 21.8641 24.5387 21.0514 26.058 20.6933C27.5773 20.3352 29.1696 20.4487 30.6228 21.0187C32.0759 21.5887 33.3208 22.588 34.1915 23.8836L29.7626 23.6711C29.6918 23.6678 29.621 23.6788 29.5546 23.7036C29.4882 23.7284 29.4275 23.7664 29.3762 23.8154C29.325 23.8643 29.2842 23.9232 29.2563 23.9884C29.2285 24.0536 29.2141 24.1237 29.2142 24.1946V26.2627C29.2142 26.4016 29.2694 26.5347 29.3675 26.6329C29.4657 26.7311 29.5989 26.7862 29.7377 26.7862H38.4765C38.6154 26.7862 38.7485 26.7311 38.8467 26.6329C38.9448 26.5347 39 26.4016 39 26.2627V17.5235C39 17.3846 38.9448 17.2515 38.8467 17.1533C38.7485 17.0552 38.6154 17 38.4765 17Z" fill="#667085"/>
</svg>
