<svg width="56" height="56" viewBox="0 0 56 56" fill="none" xmlns="http://www.w3.org/2000/svg">
<rect width="56" height="56" rx="8" fill="#F3F7FC"/>
<path d="M26.2624 26.7859H17.5235C17.2344 26.7859 17 26.5515 17 26.2624V17.5235C17 17.2344 17.2344 17 17.5235 17H19.6173C19.9064 17 20.1408 17.2344 20.1408 17.5235V20.9309C22.1375 18.7134 25.0378 17.3259 28.2621 17.3493C34.2342 17.3926 39.0127 22.2185 39 28.1907C38.9873 34.1547 34.1487 38.9855 28.1818 38.9855C25.3861 38.9855 22.8382 37.9249 20.9183 36.1843C20.6958 35.9827 20.6856 35.6367 20.8979 35.4244L22.3796 33.9427C22.5748 33.7475 22.8883 33.7369 23.095 33.9198C24.4489 35.1178 26.2295 35.8447 28.1818 35.8447C32.4248 35.8447 35.8592 32.411 35.8592 28.1672C35.8592 23.9243 32.4255 20.4898 28.1818 20.4898C25.63 20.4898 23.3711 21.7319 21.9755 23.6451H26.2624C26.5515 23.6451 26.7859 23.8795 26.7859 24.1685V26.2624C26.7859 26.5515 26.5515 26.7859 26.2624 26.7859Z" fill="#667085"/>
</svg>
